<?xml version="1.0" standalone="no"?>
<!DOCTYPE svg PUBLIC "-//W3C//DTD SVG 20010904//EN"
 "http://www.w3.org/TR/2001/REC-SVG-20010904/DTD/svg10.dtd">
<svg version="1.0" xmlns="http://www.w3.org/2000/svg"
 width="128.000000pt" height="128.000000pt" viewBox="0 0 128.000000 128.000000"
 preserveAspectRatio="xMidYMid meet">

<g transform="translate(0.000000,128.000000) scale(0.100000,-0.100000)"
fill="#000000" stroke="none">
<path d="M364 986 c-17 -8 -42 -29 -55 -47 -24 -34 -24 -35 -24 -299 0 -295 1
-300 68 -340 30 -18 52 -20 288 -20 250 0 257 1 290 23 67 44 70 61 67 347 -4
364 10 350 -360 350 -181 -1 -251 -4 -274 -14z m582 -40 l34 -34 0 -272 0
-272 -34 -34 -34 -34 -272 0 -272 0 -34 34 -34 34 0 272 0 272 34 34 34 34
272 0 272 0 34 -34z"/>
<path d="M550 930 c-37 -37 -18 -73 44 -84 39 -7 78 8 109 42 39 43 -27 86
-68 45 -16 -16 -18 -16 -27 0 -12 23 -34 21 -58 -3z"/>
<path d="M464 635 c0 -110 2 -156 3 -103 2 53 2 143 0 200 -1 57 -3 13 -3 -97z"/>
<path d="M498 793 c7 -3 16 -2 19 1 4 3 -2 6 -13 5 -11 0 -14 -3 -6 -6z"/>
<path d="M553 783 c15 -2 39 -2 55 0 15 2 2 4 -28 4 -30 0 -43 -2 -27 -4z"/>
<path d="M798 783 c7 -3 16 -2 19 1 4 3 -2 6 -13 5 -11 0 -14 -3 -6 -6z"/>
<path d="M673 773 c20 -2 54 -2 75 0 20 2 3 4 -38 4 -41 0 -58 -2 -37 -4z"/>
<path d="M513 713 c9 -2 25 -2 35 0 9 3 1 5 -18 5 -19 0 -27 -2 -17 -5z"/>
<path d="M628 703 c34 -2 90 -2 125 0 34 2 6 3 -63 3 -69 0 -97 -1 -62 -3z"/>
<path d="M518 653 c12 -2 30 -2 40 0 9 3 -1 5 -23 4 -22 0 -30 -2 -17 -4z"/>
<path d="M788 653 c7 -3 16 -2 19 1 4 3 -2 6 -13 5 -11 0 -14 -3 -6 -6z"/>
<path d="M633 643 c26 -2 68 -2 95 0 26 2 4 3 -48 3 -52 0 -74 -1 -47 -3z"/>
<path d="M548 573 c18 -2 45 -2 60 0 15 2 0 4 -33 4 -33 0 -45 -2 -27 -4z"/>
<path d="M695 570 l-60 -7 50 -1 c28 0 68 3 90 7 32 7 34 9 10 8 -16 0 -57 -3
-90 -7z"/>
<path d="M630 413 c132 -3 186 -7 192 -16 5 -8 8 -7 8 6 0 16 -15 17 -192 15
l-193 -3 185 -2z"/>
</g>
</svg>
